PathFileType	4	(X/Y/Z)	D:\TRACE\v60_Jaco2_6-2-23\JustBodyDRS_Motion3_10-v60.trc
DataRate	CameraRate	NumFrames	NumMarkers	Units	OrigDataRate	OrigDataStartFrame	OrigNumFrames
100.00	100.00	      20	9	mm	100.00	1751	      7000
Frame#	Time	front left toe			Front right toe			aft left toe			aft right toe			Arm			FL body			FR body			AL Body			AR Body			
		X1	Y1	Z1	X2	Y2	Z2	X3	Y3	Z3	X4	Y4	Z4	X5	Y5	Z5	X6	Y6	Z6	X7	Y7	Z7	X8	Y8	Z8	X9	Y9	Z9	

1751	17.500	-202.96362	21.09026	-269.37427	158.50212	15.07172	-296.27884	-195.62598	17.05378	341.30994	177.86211	24.76105	339.65561	-17.40586	1172.34033	-360.38290	-119.78304	526.67175	-450.06198	39.00289	526.98413	-457.80545	-67.88917	555.09656	492.74704	83.56078	546.03583	484.97495	
1752	17.510	-200.74976	28.23727	-267.46027	158.03156	14.66528	-296.60599	-195.57150	17.12495	341.27811	175.16176	32.62675	341.19180	-18.22297	1172.35876	-360.62048	-120.30737	526.92548	-450.18555	38.55398	527.28851	-457.96317	-67.69891	555.20557	492.61853	83.76207	546.22809	484.84116	
1753	17.520	-200.77855	38.65236	-268.45374	158.21291	14.52417	-296.59171	-195.59932	17.07795	341.33981	173.42412	42.58716	340.15945	-18.97915	1172.32410	-360.47412	-120.45512	526.67377	-450.17337	38.34885	527.34119	-458.13867	-67.72643	555.22638	492.43115	83.59169	546.28601	484.73422	
1754	17.530	-201.54922	47.50538	-268.92361	158.48906	14.70320	-295.99356	-195.78026	16.91358	341.39700	174.18925	53.16621	338.27930	-19.87622	1172.38770	-360.06464	-120.50648	526.44330	-450.28561	38.13721	527.11401	-458.24808	-68.28422	554.93707	491.99310	83.02451	546.36292	485.23911	
1755	17.540	-204.07874	59.13770	-271.04919	158.50450	14.59099	-296.01370	-196.21924	16.63778	341.72244	177.03949	65.00873	336.39151	-20.28203	1172.31543	-359.68179	-120.45947	526.05695	-450.52359	38.19844	526.75287	-458.44470	-69.18359	554.29559	491.75818	82.54227	545.95068	485.04428	
1756	17.550	-205.98944	71.66723	-272.72778	158.73975	14.23840	-296.37189	-196.87964	16.93566	342.03168	179.14366	76.02695	334.49536	-20.34050	1171.99976	-359.52335	-120.63364	525.85345	-451.04031	38.10775	526.60046	-458.70947	-69.64851	553.41217	491.52173	81.99854	545.07489	484.80386	
1757	17.560	-207.58200	83.37086	-274.16907	158.82506	14.02202	-296.85529	-197.01479	17.00308	341.54666	180.67903	87.22931	333.09891	-20.59478	1171.58423	-359.59021	-120.73706	525.78729	-451.41855	38.10555	526.48669	-458.95538	-70.35822	552.55054	491.24359	81.62653	544.48450	484.70828	
1758	17.570	-208.88190	94.67468	-275.40985	158.44099	13.97855	-296.43884	-197.07988	16.88243	341.98318	180.82074	98.13213	331.79385	-20.10015	1170.91272	-359.56943	-120.72971	525.60986	-451.74609	37.97868	526.33417	-459.13849	-70.70824	552.30463	491.23264	81.16325	544.04840	484.54431	
1759	17.580	-209.56561	105.10635	-276.62698	158.32512	13.91497	-296.48157	-197.22809	17.02721	341.47647	179.64281	108.65816	330.49240	-20.39290	1170.75476	-359.95700	-120.66774	525.24103	-451.96970	37.96953	526.06757	-459.36295	-71.14793	552.10034	490.97006	80.52726	543.79089	484.36325	
1760	17.590	-210.46030	114.63670	-277.57703	158.22163	13.84588	-296.54755	-197.50883	16.92260	341.37830	178.44833	118.37577	329.59586	-20.48747	1170.54871	-360.22635	-120.85651	524.83850	-452.34290	37.94619	525.83685	-459.50375	-71.81257	551.86078	490.38071	80.09908	543.57025	484.21912	
1761	17.600	-211.32693	123.18959	-278.27774	158.18719	13.90839	-296.50760	-197.69365	16.74662	341.35858	176.89375	126.90395	328.67560	-20.87607	1170.30127	-360.50659	-120.85625	524.61108	-452.47128	37.79025	525.58826	-459.65189	-72.45715	551.64764	490.17484	79.54472	543.41736	484.04568	
1762	17.610	-212.99313	130.80643	-278.97455	158.05672	13.84454	-296.49429	-197.87099	16.78657	341.40726	177.60344	135.41347	327.85367	-21.30716	1170.10583	-360.93069	-120.76011	524.21320	-452.58774	37.82835	525.21552	-459.80688	-72.86093	551.58154	490.16632	79.21236	543.17462	483.19403	
1763	17.620	-214.56789	137.30772	-279.55133	157.31744	13.65531	-296.45667	-197.96140	16.85707	341.36264	176.72301	141.76480	326.72116	-21.91263	1169.87769	-361.52402	-120.58466	523.98053	-452.71033	38.09652	524.82965	-459.90158	-73.44756	551.80676	490.13147	78.68079	543.41406	483.08539	
1764	17.630	-216.23917	142.45006	-280.37378	157.06351	13.60484	-296.51218	-198.06918	16.90941	341.22284	177.02036	146.33919	325.73956	-21.83895	1169.54431	-361.77670	-120.43918	523.65393	-452.85547	38.18898	524.59473	-460.06256	-74.20290	552.09216	489.88507	78.09841	543.60004	483.01743	
1765	17.640	-217.93469	145.46996	-280.90201	157.85922	13.72517	-296.33264	-198.21797	16.95439	341.13071	178.42528	148.78802	325.26587	-22.04608	1169.37402	-362.76337	-120.41288	523.33929	-453.09811	38.17789	524.26434	-460.03149	-74.66075	552.33057	489.63452	76.93408	543.89264	482.95245	
1766	17.650	-219.14105	144.34521	-280.63461	157.76195	13.63079	-296.28375	-198.08728	16.56462	340.95807	178.64110	147.99463	325.43210	-21.26675	1168.92505	-363.28165	-120.59084	522.78448	-453.38000	38.23038	523.95496	-460.07938	-75.62291	552.67828	489.26108	76.93336	544.36017	483.07422	
1767	17.660	-220.05190	140.47147	-280.69788	157.72171	13.51670	-296.22467	-198.28320	16.54769	340.89380	177.77818	144.74382	325.67093	-20.79623	1168.54883	-363.63480	-120.64439	522.59595	-453.60516	37.57127	523.81250	-460.01425	-76.20718	553.11700	489.28122	75.88626	544.99194	483.59848	
1768	17.670	-220.29825	135.56534	-280.53873	157.63470	13.47175	-296.19058	-198.39719	16.66828	340.86487	176.78624	140.70425	325.85855	-20.31270	1168.30908	-364.01971	-120.64253	522.48108	-453.91824	37.60424	523.61871	-460.20029	-76.58900	553.31787	489.06406	75.59448	545.19739	483.38443	
1769	17.680	-220.75583	130.28555	-280.90945	157.46996	13.29292	-296.29745	-198.43451	16.74522	340.77966	175.92491	135.50235	326.01859	-20.36674	1168.30933	-364.43747	-120.56400	522.40857	-454.37244	37.69933	523.42163	-460.38770	-77.24581	553.46613	488.71164	75.40662	545.26416	483.12711	
1770	17.690	-221.02347	124.45438	-281.61411	157.23953	13.09636	-296.41617	-198.54636	16.69199	340.72797	174.47792	129.45610	326.01324	-20.97626	1168.39307	-364.87790	-120.45536	522.30957	-454.65463	37.51753	523.50604	-460.35519	-77.81839	553.38867	488.38150	74.66361	545.15491	482.79727	
